{
	"asset":{
		"generator":"Khronos glTF Blender I/O v4.5.48",
		"version":"2.0"
	},
	"scene":0,
	"scenes":[
		{
			"name":"Scene",
			"nodes":[
				14
			]
		}
	],
	"nodes":[
		{
			"name":"Feet_R",
			"rotation":[
				1.8965340857149274e-15,
				1.7763568394002505e-15,
				3.52930373653001e-23,
				1
			],
			"translation":[
				-8.049116928532385e-16,
				0.1874999701976776,
				8.881784197001252e-16
			]
		},
		{
			"children":[
				0
			],
			"name":"Knee_R",
			"rotation":[
				0,
				1.0025483360881847e-23,
				-1.2404818801938685e-23,
				1
			],
			"translation":[
				-8.049116928532385e-16,
				0.1875,
				-2.6645352591003757e-15
			]
		},
		{
			"children":[
				1
			],
			"name":"Leg_R",
			"rotation":[
				-1,
				2.928983286277023e-16,
				-1.7114272665708086e-08,
				8.557136332854043e-09
			],
			"translation":[
				-0.1875,
				0.6875,
				6.617444900424222e-24
			]
		},
		{
			"name":"Feet_L",
			"rotation":[
				1.8965340857149274e-15,
				1.7763568394002505e-15,
				3.52930373653001e-23,
				1
			],
			"translation":[
				-8.049116928532385e-16,
				0.1874999701976776,
				-8.881784197001252e-16
			]
		},
		{
			"children":[
				3
			],
			"name":"Knee_L",
			"rotation":[
				0,
				1.0025483360881847e-23,
				-1.2404818801938685e-23,
				1
			],
			"translation":[
				-8.049116928532385e-16,
				0.1875,
				-8.881784197001252e-16
			]
		},
		{
			"children":[
				4
			],
			"name":"Leg_L",
			"rotation":[
				-1,
				2.928983286277023e-16,
				-1.7114272665708086e-08,
				8.557136332854043e-09
			],
			"translation":[
				0.1875,
				0.6875,
				6.617444900424222e-24
			]
		},
		{
			"name":"Hand_R",
			"rotation":[
				1.6940658945086007e-21,
				0,
				-1.951373793026753e-21,
				1
			],
			"translation":[
				-4.718618384913498e-09,
				0.18749994039535522,
				-9.743814644025406e-10
			]
		},
		{
			"children":[
				6
			],
			"name":"Elbow_R",
			"rotation":[
				-2.5846736047014512e-14,
				3.552713467042264e-15,
				2.384185791015625e-07,
				1
			],
			"translation":[
				-1.5373016992725752e-07,
				0.24999994039535522,
				-9.744376416875866e-10
			]
		},
		{
			"children":[
				7
			],
			"name":"Arm_R",
			"rotation":[
				-3.832837336403827e-08,
				1.5056691893278185e-08,
				0.7071065902709961,
				0.7071069478988647
			],
			"translation":[
				-0.5624999403953552,
				0.0625,
				-2.246566488395274e-08
			]
		},
		{
			"name":"Hand_L",
			"rotation":[
				3.3881317890172014e-21,
				0,
				2.4878187975710394e-21,
				1
			],
			"translation":[
				4.718618384913498e-09,
				0.18749994039535522,
				2.7509088340593735e-09
			]
		},
		{
			"children":[
				9
			],
			"name":"Elbow_L",
			"rotation":[
				-3.2952163404615514e-14,
				-3.552713678800501e-15,
				-2.384185791015625e-07,
				1
			],
			"translation":[
				1.5373016992725752e-07,
				0.24999994039535522,
				2.7508411104548713e-09
			]
		},
		{
			"children":[
				10
			],
			"name":"Arm_L",
			"rotation":[
				-1.5056670576996112e-08,
				-3.832840889117506e-08,
				-0.7071065902709961,
				0.7071069478988647
			],
			"translation":[
				0.5624999403953552,
				0.0625,
				1.0834094510414616e-08
			]
		},
		{
			"children":[
				8,
				11
			],
			"name":"center",
			"rotation":[
				-8.22779000486662e-09,
				1.645558000973324e-08,
				-2.7078611002315516e-16,
				1
			],
			"translation":[
				0,
				1.0625,
				0.0625
			]
		},
		{
			"mesh":0,
			"name":"Mesh_0",
			"skin":0
		},
		{
			"children":[
				13,
				2,
				5,
				12
			],
			"name":"armature"
		}
	],
	"animations":[
		{
			"channels":[
				{
					"sampler":0,
					"target":{
						"node":2,
						"path":"translation"
					}
				},
				{
					"sampler":1,
					"target":{
						"node":2,
						"path":"rotation"
					}
				},
				{
					"sampler":2,
					"target":{
						"node":2,
						"path":"scale"
					}
				},
				{
					"sampler":3,
					"target":{
						"node":1,
						"path":"translation"
					}
				},
				{
					"sampler":4,
					"target":{
						"node":1,
						"path":"rotation"
					}
				},
				{
					"sampler":5,
					"target":{
						"node":1,
						"path":"scale"
					}
				},
				{
					"sampler":6,
					"target":{
						"node":0,
						"path":"translation"
					}
				},
				{
					"sampler":7,
					"target":{
						"node":0,
						"path":"rotation"
					}
				},
				{
					"sampler":8,
					"target":{
						"node":0,
						"path":"scale"
					}
				},
				{
					"sampler":9,
					"target":{
						"node":5,
						"path":"translation"
					}
				},
				{
					"sampler":10,
					"target":{
						"node":5,
						"path":"rotation"
					}
				},
				{
					"sampler":11,
					"target":{
						"node":5,
						"path":"scale"
					}
				},
				{
					"sampler":12,
					"target":{
						"node":4,
						"path":"translation"
					}
				},
				{
					"sampler":13,
					"target":{
						"node":4,
						"path":"rotation"
					}
				},
				{
					"sampler":14,
					"target":{
						"node":4,
						"path":"scale"
					}
				},
				{
					"sampler":15,
					"target":{
						"node":3,
						"path":"translation"
					}
				},
				{
					"sampler":16,
					"target":{
						"node":3,
						"path":"rotation"
					}
				},
				{
					"sampler":17,
					"target":{
						"node":3,
						"path":"scale"
					}
				},
				{
					"sampler":18,
					"target":{
						"node":12,
						"path":"translation"
					}
				},
				{
					"sampler":19,
					"target":{
						"node":12,
						"path":"rotation"
					}
				},
				{
					"sampler":20,
					"target":{
						"node":12,
						"path":"scale"
					}
				},
				{
					"sampler":21,
					"target":{
						"node":8,
						"path":"translation"
					}
				},
				{
					"sampler":22,
					"target":{
						"node":8,
						"path":"rotation"
					}
				},
				{
					"sampler":23,
					"target":{
						"node":8,
						"path":"scale"
					}
				},
				{
					"sampler":24,
					"target":{
						"node":7,
						"path":"translation"
					}
				},
				{
					"sampler":25,
					"target":{
						"node":7,
						"path":"rotation"
					}
				},
				{
					"sampler":26,
					"target":{
						"node":7,
						"path":"scale"
					}
				},
				{
					"sampler":27,
					"target":{
						"node":6,
						"path":"translation"
					}
				},
				{
					"sampler":28,
					"target":{
						"node":6,
						"path":"rotation"
					}
				},
				{
					"sampler":29,
					"target":{
						"node":6,
						"path":"scale"
					}
				},
				{
					"sampler":30,
					"target":{
						"node":11,
						"path":"translation"
					}
				},
				{
					"sampler":31,
					"target":{
						"node":11,
						"path":"rotation"
					}
				},
				{
					"sampler":32,
					"target":{
						"node":11,
						"path":"scale"
					}
				},
				{
					"sampler":33,
					"target":{
						"node":10,
						"path":"translation"
					}
				},
				{
					"sampler":34,
					"target":{
						"node":10,
						"path":"rotation"
					}
				},
				{
					"sampler":35,
					"target":{
						"node":10,
						"path":"scale"
					}
				},
				{
					"sampler":36,
					"target":{
						"node":9,
						"path":"translation"
					}
				},
				{
					"sampler":37,
					"target":{
						"node":9,
						"path":"rotation"
					}
				},
				{
					"sampler":38,
					"target":{
						"node":9,
						"path":"scale"
					}
				}
			],
			"name":"entract",
			"samplers":[
				{
					"input":7,
					"interpolation":"STEP",
					"output":8
				},
				{
					"input":7,
					"interpolation":"STEP",
					"output":9
				},
				{
					"input":7,
					"interpolation":"STEP",
					"output":10
				},
				{
					"input":7,
					"interpolation":"STEP",
					"output":11
				},
				{
					"input":12,
					"interpolation":"LINEAR",
					"output":13
				},
				{
					"input":7,
					"interpolation":"STEP",
					"output":10
				},
				{
					"input":7,
					"interpolation":"STEP",
					"output":14
				},
				{
					"input":12,
					"interpolation":"LINEAR",
					"output":15
				},
				{
					"input":7,
					"interpolation":"STEP",
					"output":16
				},
				{
					"input":7,
					"interpolation":"STEP",
					"output":17
				},
				{
					"input":7,
					"interpolation":"STEP",
					"output":18
				},
				{
					"input":7,
					"interpolation":"STEP",
					"output":10
				},
				{
					"input":7,
					"interpolation":"STEP",
					"output":19
				},
				{
					"input":12,
					"interpolation":"LINEAR",
					"output":20
				},
				{
					"input":7,
					"interpolation":"STEP",
					"output":10
				},
				{
					"input":7,
					"interpolation":"STEP",
					"output":21
				},
				{
					"input":12,
					"interpolation":"LINEAR",
					"output":22
				},
				{
					"input":7,
					"interpolation":"STEP",
					"output":10
				},
				{
					"input":7,
					"interpolation":"STEP",
					"output":23
				},
				{
					"input":12,
					"interpolation":"LINEAR",
					"output":24
				},
				{
					"input":7,
					"interpolation":"STEP",
					"output":10
				},
				{
					"input":7,
					"interpolation":"STEP",
					"output":25
				},
				{
					"input":12,
					"interpolation":"LINEAR",
					"output":26
				},
				{
					"input":12,
					"interpolation":"LINEAR",
					"output":27
				},
				{
					"input":7,
					"interpolation":"STEP",
					"output":28
				},
				{
					"input":12,
					"interpolation":"LINEAR",
					"output":29
				},
				{
					"input":12,
					"interpolation":"LINEAR",
					"output":30
				},
				{
					"input":7,
					"interpolation":"STEP",
					"output":31
				},
				{
					"input":7,
					"interpolation":"STEP",
					"output":32
				},
				{
					"input":12,
					"interpolation":"LINEAR",
					"output":33
				},
				{
					"input":7,
					"interpolation":"STEP",
					"output":34
				},
				{
					"input":12,
					"interpolation":"LINEAR",
					"output":35
				},
				{
					"input":7,
					"interpolation":"STEP",
					"output":36
				},
				{
					"input":7,
					"interpolation":"STEP",
					"output":37
				},
				{
					"input":12,
					"interpolation":"LINEAR",
					"output":38
				},
				{
					"input":7,
					"interpolation":"STEP",
					"output":10
				},
				{
					"input":7,
					"interpolation":"STEP",
					"output":39
				},
				{
					"input":12,
					"interpolation":"LINEAR",
					"output":40
				},
				{
					"input":7,
					"interpolation":"STEP",
					"output":41
				}
			]
		},
		{
			"channels":[
				{
					"sampler":0,
					"target":{
						"node":2,
						"path":"translation"
					}
				},
				{
					"sampler":1,
					"target":{
						"node":2,
						"path":"rotation"
					}
				},
				{
					"sampler":2,
					"target":{
						"node":2,
						"path":"scale"
					}
				},
				{
					"sampler":3,
					"target":{
						"node":1,
						"path":"translation"
					}
				},
				{
					"sampler":4,
					"target":{
						"node":1,
						"path":"rotation"
					}
				},
				{
					"sampler":5,
					"target":{
						"node":1,
						"path":"scale"
					}
				},
				{
					"sampler":6,
					"target":{
						"node":0,
						"path":"translation"
					}
				},
				{
					"sampler":7,
					"target":{
						"node":0,
						"path":"rotation"
					}
				},
				{
					"sampler":8,
					"target":{
						"node":0,
						"path":"scale"
					}
				},
				{
					"sampler":9,
					"target":{
						"node":5,
						"path":"translation"
					}
				},
				{
					"sampler":10,
					"target":{
						"node":5,
						"path":"rotation"
					}
				},
				{
					"sampler":11,
					"target":{
						"node":5,
						"path":"scale"
					}
				},
				{
					"sampler":12,
					"target":{
						"node":4,
						"path":"translation"
					}
				},
				{
					"sampler":13,
					"target":{
						"node":4,
						"path":"rotation"
					}
				},
				{
					"sampler":14,
					"target":{
						"node":4,
						"path":"scale"
					}
				},
				{
					"sampler":15,
					"target":{
						"node":3,
						"path":"translation"
					}
				},
				{
					"sampler":16,
					"target":{
						"node":3,
						"path":"rotation"
					}
				},
				{
					"sampler":17,
					"target":{
						"node":3,
						"path":"scale"
					}
				},
				{
					"sampler":18,
					"target":{
						"node":12,
						"path":"translation"
					}
				},
				{
					"sampler":19,
					"target":{
						"node":12,
						"path":"rotation"
					}
				},
				{
					"sampler":20,
					"target":{
						"node":12,
						"path":"scale"
					}
				},
				{
					"sampler":21,
					"target":{
						"node":8,
						"path":"translation"
					}
				},
				{
					"sampler":22,
					"target":{
						"node":8,
						"path":"rotation"
					}
				},
				{
					"sampler":23,
					"target":{
						"node":8,
						"path":"scale"
					}
				},
				{
					"sampler":24,
					"target":{
						"node":7,
						"path":"translation"
					}
				},
				{
					"sampler":25,
					"target":{
						"node":7,
						"path":"rotation"
					}
				},
				{
					"sampler":26,
					"target":{
						"node":7,
						"path":"scale"
					}
				},
				{
					"sampler":27,
					"target":{
						"node":6,
						"path":"translation"
					}
				},
				{
					"sampler":28,
					"target":{
						"node":6,
						"path":"rotation"
					}
				},
				{
					"sampler":29,
					"target":{
						"node":6,
						"path":"scale"
					}
				},
				{
					"sampler":30,
					"target":{
						"node":11,
						"path":"translation"
					}
				},
				{
					"sampler":31,
					"target":{
						"node":11,
						"path":"rotation"
					}
				},
				{
					"sampler":32,
					"target":{
						"node":11,
						"path":"scale"
					}
				},
				{
					"sampler":33,
					"target":{
						"node":10,
						"path":"translation"
					}
				},
				{
					"sampler":34,
					"target":{
						"node":10,
						"path":"rotation"
					}
				},
				{
					"sampler":35,
					"target":{
						"node":10,
						"path":"scale"
					}
				},
				{
					"sampler":36,
					"target":{
						"node":9,
						"path":"translation"
					}
				},
				{
					"sampler":37,
					"target":{
						"node":9,
						"path":"rotation"
					}
				},
				{
					"sampler":38,
					"target":{
						"node":9,
						"path":"scale"
					}
				}
			],
			"name":"falling",
			"samplers":[
				{
					"input":42,
					"interpolation":"STEP",
					"output":43
				},
				{
					"input":44,
					"interpolation":"LINEAR",
					"output":45
				},
				{
					"input":42,
					"interpolation":"STEP",
					"output":10
				},
				{
					"input":42,
					"interpolation":"STEP",
					"output":46
				},
				{
					"input":42,
					"interpolation":"STEP",
					"output":47
				},
				{
					"input":42,
					"interpolation":"STEP",
					"output":10
				},
				{
					"input":42,
					"interpolation":"STEP",
					"output":48
				},
				{
					"input":44,
					"interpolation":"LINEAR",
					"output":49
				},
				{
					"input":42,
					"interpolation":"STEP",
					"output":10
				},
				{
					"input":42,
					"interpolation":"STEP",
					"output":50
				},
				{
					"input":44,
					"interpolation":"LINEAR",
					"output":51
				},
				{
					"input":42,
					"interpolation":"STEP",
					"output":10
				},
				{
					"input":42,
					"interpolation":"STEP",
					"output":52
				},
				{
					"input":42,
					"interpolation":"STEP",
					"output":53
				},
				{
					"input":42,
					"interpolation":"STEP",
					"output":54
				},
				{
					"input":42,
					"interpolation":"STEP",
					"output":55
				},
				{
					"input":44,
					"interpolation":"LINEAR",
					"output":56
				},
				{
					"input":42,
					"interpolation":"STEP",
					"output":54
				},
				{
					"input":42,
					"interpolation":"STEP",
					"output":23
				},
				{
					"input":44,
					"interpolation":"LINEAR",
					"output":57
				},
				{
					"input":42,
					"interpolation":"STEP",
					"output":10
				},
				{
					"input":42,
					"interpolation":"STEP",
					"output":58
				},
				{
					"input":44,
					"interpolation":"LINEAR",
					"output":59
				},
				{
					"input":42,
					"interpolation":"STEP",
					"output":60
				},
				{
					"input":42,
					"interpolation":"STEP",
					"output":61
				},
				{
					"input":42,
					"interpolation":"STEP",
					"output":62
				},
				{
					"input":42,
					"interpolation":"STEP",
					"output":54
				},
				{
					"input":42,
					"interpolation":"STEP",
					"output":63
				},
				{
					"input":44,
					"interpolation":"LINEAR",
					"output":64
				},
				{
					"input":42,
					"interpolation":"STEP",
					"output":65
				},
				{
					"input":42,
					"interpolation":"STEP",
					"output":66
				},
				{
					"input":44,
					"interpolation":"LINEAR",
					"output":67
				},
				{
					"input":42,
					"interpolation":"STEP",
					"output":10
				},
				{
					"input":42,
					"interpolation":"STEP",
					"output":68
				},
				{
					"input":44,
					"interpolation":"LINEAR",
					"output":69
				},
				{
					"input":42,
					"interpolation":"STEP",
					"output":10
				},
				{
					"input":42,
					"interpolation":"STEP",
					"output":70
				},
				{
					"input":44,
					"interpolation":"LINEAR",
					"output":71
				},
				{
					"input":42,
					"interpolation":"STEP",
					"output":10
				}
			]
		},
		{
			"channels":[
				{
					"sampler":0,
					"target":{
						"node":2,
						"path":"translation"
					}
				},
				{
					"sampler":1,
					"target":{
						"node":2,
						"path":"rotation"
					}
				},
				{
					"sampler":2,
					"target":{
						"node":2,
						"path":"scale"
					}
				},
				{
					"sampler":3,
					"target":{
						"node":1,
						"path":"translation"
					}
				},
				{
					"sampler":4,
					"target":{
						"node":1,
						"path":"rotation"
					}
				},
				{
					"sampler":5,
					"target":{
						"node":1,
						"path":"scale"
					}
				},
				{
					"sampler":6,
					"target":{
						"node":0,
						"path":"translation"
					}
				},
				{
					"sampler":7,
					"target":{
						"node":0,
						"path":"rotation"
					}
				},
				{
					"sampler":8,
					"target":{
						"node":0,
						"path":"scale"
					}
				},
				{
					"sampler":9,
					"target":{
						"node":5,
						"path":"translation"
					}
				},
				{
					"sampler":10,
					"target":{
						"node":5,
						"path":"rotation"
					}
				},
				{
					"sampler":11,
					"target":{
						"node":5,
						"path":"scale"
					}
				},
				{
					"sampler":12,
					"target":{
						"node":4,
						"path":"translation"
					}
				},
				{
					"sampler":13,
					"target":{
						"node":4,
						"path":"rotation"
					}
				},
				{
					"sampler":14,
					"target":{
						"node":4,
						"path":"scale"
					}
				},
				{
					"sampler":15,
					"target":{
						"node":3,
						"path":"translation"
					}
				},
				{
					"sampler":16,
					"target":{
						"node":3,
						"path":"rotation"
					}
				},
				{
					"sampler":17,
					"target":{
						"node":3,
						"path":"scale"
					}
				},
				{
					"sampler":18,
					"target":{
						"node":12,
						"path":"translation"
					}
				},
				{
					"sampler":19,
					"target":{
						"node":12,
						"path":"rotation"
					}
				},
				{
					"sampler":20,
					"target":{
						"node":12,
						"path":"scale"
					}
				},
				{
					"sampler":21,
					"target":{
						"node":8,
						"path":"translation"
					}
				},
				{
					"sampler":22,
					"target":{
						"node":8,
						"path":"rotation"
					}
				},
				{
					"sampler":23,
					"target":{
						"node":8,
						"path":"scale"
					}
				},
				{
					"sampler":24,
					"target":{
						"node":7,
						"path":"translation"
					}
				},
				{
					"sampler":25,
					"target":{
						"node":7,
						"path":"rotation"
					}
				},
				{
					"sampler":26,
					"target":{
						"node":7,
						"path":"scale"
					}
				},
				{
					"sampler":27,
					"target":{
						"node":6,
						"path":"translation"
					}
				},
				{
					"sampler":28,
					"target":{
						"node":6,
						"path":"rotation"
					}
				},
				{
					"sampler":29,
					"target":{
						"node":6,
						"path":"scale"
					}
				},
				{
					"sampler":30,
					"target":{
						"node":11,
						"path":"translation"
					}
				},
				{
					"sampler":31,
					"target":{
						"node":11,
						"path":"rotation"
					}
				},
				{
					"sampler":32,
					"target":{
						"node":11,
						"path":"scale"
					}
				},
				{
					"sampler":33,
					"target":{
						"node":10,
						"path":"translation"
					}
				},
				{
					"sampler":34,
					"target":{
						"node":10,
						"path":"rotation"
					}
				},
				{
					"sampler":35,
					"target":{
						"node":10,
						"path":"scale"
					}
				},
				{
					"sampler":36,
					"target":{
						"node":9,
						"path":"translation"
					}
				},
				{
					"sampler":37,
					"target":{
						"node":9,
						"path":"rotation"
					}
				},
				{
					"sampler":38,
					"target":{
						"node":9,
						"path":"scale"
					}
				}
			],
			"name":"idle",
			"samplers":[
				{
					"input":72,
					"interpolation":"STEP",
					"output":8
				},
				{
					"input":73,
					"interpolation":"LINEAR",
					"output":74
				},
				{
					"input":73,
					"interpolation":"LINEAR",
					"output":75
				},
				{
					"input":72,
					"interpolation":"STEP",
					"output":11
				},
				{
					"input":73,
					"interpolation":"LINEAR",
					"output":76
				},
				{
					"input":72,
					"interpolation":"STEP",
					"output":10
				},
				{
					"input":72,
					"interpolation":"STEP",
					"output":14
				},
				{
					"input":73,
					"interpolation":"LINEAR",
					"output":77
				},
				{
					"input":72,
					"interpolation":"STEP",
					"output":10
				},
				{
					"input":72,
					"interpolation":"STEP",
					"output":17
				},
				{
					"input":73,
					"interpolation":"LINEAR",
					"output":78
				},
				{
					"input":73,
					"interpolation":"LINEAR",
					"output":79
				},
				{
					"input":72,
					"interpolation":"STEP",
					"output":19
				},
				{
					"input":73,
					"interpolation":"LINEAR",
					"output":80
				},
				{
					"input":72,
					"interpolation":"STEP",
					"output":10
				},
				{
					"input":72,
					"interpolation":"STEP",
					"output":21
				},
				{
					"input":73,
					"interpolation":"LINEAR",
					"output":81
				},
				{
					"input":72,
					"interpolation":"STEP",
					"output":10
				},
				{
					"input":73,
					"interpolation":"LINEAR",
					"output":82
				},
				{
					"input":73,
					"interpolation":"LINEAR",
					"output":83
				},
				{
					"input":73,
					"interpolation":"LINEAR",
					"output":84
				},
				{
					"input":73,
					"interpolation":"LINEAR",
					"output":85
				},
				{
					"input":73,
					"interpolation":"LINEAR",
					"output":86
				},
				{
					"input":72,
					"interpolation":"STEP",
					"output":87
				},
				{
					"input":72,
					"interpolation":"STEP",
					"output":28
				},
				{
					"input":73,
					"interpolation":"LINEAR",
					"output":88
				},
				{
					"input":72,
					"interpolation":"STEP",
					"output":10
				},
				{
					"input":72,
					"interpolation":"STEP",
					"output":89
				},
				{
					"input":73,
					"interpolation":"LINEAR",
					"output":90
				},
				{
					"input":73,
					"interpolation":"LINEAR",
					"output":91
				},
				{
					"input":73,
					"interpolation":"LINEAR",
					"output":92
				},
				{
					"input":73,
					"interpolation":"LINEAR",
					"output":93
				},
				{
					"input":72,
					"interpolation":"STEP",
					"output":36
				},
				{
					"input":72,
					"interpolation":"STEP",
					"output":94
				},
				{
					"input":73,
					"interpolation":"LINEAR",
					"output":95
				},
				{
					"input":72,
					"interpolation":"STEP",
					"output":10
				},
				{
					"input":72,
					"interpolation":"STEP",
					"output":96
				},
				{
					"input":73,
					"interpolation":"LINEAR",
					"output":97
				},
				{
					"input":73,
					"interpolation":"LINEAR",
					"output":98
				}
			]
		},
		{
			"channels":[
				{
					"sampler":0,
					"target":{
						"node":2,
						"path":"translation"
					}
				},
				{
					"sampler":1,
					"target":{
						"node":2,
						"path":"rotation"
					}
				},
				{
					"sampler":2,
					"target":{
						"node":2,
						"path":"scale"
					}
				},
				{
					"sampler":3,
					"target":{
						"node":1,
						"path":"translation"
					}
				},
				{
					"sampler":4,
					"target":{
						"node":1,
						"path":"rotation"
					}
				},
				{
					"sampler":5,
					"target":{
						"node":1,
						"path":"scale"
					}
				},
				{
					"sampler":6,
					"target":{
						"node":0,
						"path":"translation"
					}
				},
				{
					"sampler":7,
					"target":{
						"node":0,
						"path":"rotation"
					}
				},
				{
					"sampler":8,
					"target":{
						"node":0,
						"path":"scale"
					}
				},
				{
					"sampler":9,
					"target":{
						"node":5,
						"path":"translation"
					}
				},
				{
					"sampler":10,
					"target":{
						"node":5,
						"path":"rotation"
					}
				},
				{
					"sampler":11,
					"target":{
						"node":5,
						"path":"scale"
					}
				},
				{
					"sampler":12,
					"target":{
						"node":4,
						"path":"translation"
					}
				},
				{
					"sampler":13,
					"target":{
						"node":4,
						"path":"rotation"
					}
				},
				{
					"sampler":14,
					"target":{
						"node":4,
						"path":"scale"
					}
				},
				{
					"sampler":15,
					"target":{
						"node":3,
						"path":"translation"
					}
				},
				{
					"sampler":16,
					"target":{
						"node":3,
						"path":"rotation"
					}
				},
				{
					"sampler":17,
					"target":{
						"node":3,
						"path":"scale"
					}
				},
				{
					"sampler":18,
					"target":{
						"node":12,
						"path":"translation"
					}
				},
				{
					"sampler":19,
					"target":{
						"node":12,
						"path":"rotation"
					}
				},
				{
					"sampler":20,
					"target":{
						"node":12,
						"path":"scale"
					}
				},
				{
					"sampler":21,
					"target":{
						"node":8,
						"path":"translation"
					}
				},
				{
					"sampler":22,
					"target":{
						"node":8,
						"path":"rotation"
					}
				},
				{
					"sampler":23,
					"target":{
						"node":8,
						"path":"scale"
					}
				},
				{
					"sampler":24,
					"target":{
						"node":7,
						"path":"translation"
					}
				},
				{
					"sampler":25,
					"target":{
						"node":7,
						"path":"rotation"
					}
				},
				{
					"sampler":26,
					"target":{
						"node":7,
						"path":"scale"
					}
				},
				{
					"sampler":27,
					"target":{
						"node":6,
						"path":"translation"
					}
				},
				{
					"sampler":28,
					"target":{
						"node":6,
						"path":"rotation"
					}
				},
				{
					"sampler":29,
					"target":{
						"node":6,
						"path":"scale"
					}
				},
				{
					"sampler":30,
					"target":{
						"node":11,
						"path":"translation"
					}
				},
				{
					"sampler":31,
					"target":{
						"node":11,
						"path":"rotation"
					}
				},
				{
					"sampler":32,
					"target":{
						"node":11,
						"path":"scale"
					}
				},
				{
					"sampler":33,
					"target":{
						"node":10,
						"path":"translation"
					}
				},
				{
					"sampler":34,
					"target":{
						"node":10,
						"path":"rotation"
					}
				},
				{
					"sampler":35,
					"target":{
						"node":10,
						"path":"scale"
					}
				},
				{
					"sampler":36,
					"target":{
						"node":9,
						"path":"translation"
					}
				},
				{
					"sampler":37,
					"target":{
						"node":9,
						"path":"rotation"
					}
				},
				{
					"sampler":38,
					"target":{
						"node":9,
						"path":"scale"
					}
				}
			],
			"name":"jump",
			"samplers":[
				{
					"input":12,
					"interpolation":"LINEAR",
					"output":99
				},
				{
					"input":12,
					"interpolation":"LINEAR",
					"output":100
				},
				{
					"input":7,
					"interpolation":"STEP",
					"output":10
				},
				{
					"input":7,
					"interpolation":"STEP",
					"output":101
				},
				{
					"input":12,
					"interpolation":"LINEAR",
					"output":102
				},
				{
					"input":7,
					"interpolation":"STEP",
					"output":10
				},
				{
					"input":7,
					"interpolation":"STEP",
					"output":103
				},
				{
					"input":12,
					"interpolation":"LINEAR",
					"output":104
				},
				{
					"input":12,
					"interpolation":"LINEAR",
					"output":105
				},
				{
					"input":12,
					"interpolation":"LINEAR",
					"output":106
				},
				{
					"input":12,
					"interpolation":"LINEAR",
					"output":107
				},
				{
					"input":7,
					"interpolation":"STEP",
					"output":10
				},
				{
					"input":7,
					"interpolation":"STEP",
					"output":108
				},
				{
					"input":12,
					"interpolation":"LINEAR",
					"output":109
				},
				{
					"input":7,
					"interpolation":"STEP",
					"output":110
				},
				{
					"input":7,
					"interpolation":"STEP",
					"output":111
				},
				{
					"input":12,
					"interpolation":"LINEAR",
					"output":112
				},
				{
					"input":12,
					"interpolation":"LINEAR",
					"output":113
				},
				{
					"input":12,
					"interpolation":"LINEAR",
					"output":114
				},
				{
					"input":12,
					"interpolation":"LINEAR",
					"output":115
				},
				{
					"input":12,
					"interpolation":"LINEAR",
					"output":116
				},
				{
					"input":7,
					"interpolation":"STEP",
					"output":117
				},
				{
					"input":12,
					"interpolation":"LINEAR",
					"output":118
				},
				{
					"input":7,
					"interpolation":"STEP",
					"output":119
				},
				{
					"input":7,
					"interpolation":"STEP",
					"output":120
				},
				{
					"input":12,
					"interpolation":"LINEAR",
					"output":121
				},
				{
					"input":7,
					"interpolation":"STEP",
					"output":122
				},
				{
					"input":7,
					"interpolation":"STEP",
					"output":123
				},
				{
					"input":12,
					"interpolation":"LINEAR",
					"output":124
				},
				{
					"input":7,
					"interpolation":"STEP",
					"output":125
				},
				{
					"input":7,
					"interpolation":"STEP",
					"output":126
				},
				{
					"input":12,
					"interpolation":"LINEAR",
					"output":127
				},
				{
					"input":7,
					"interpolation":"STEP",
					"output":128
				},
				{
					"input":7,
					"interpolation":"STEP",
					"output":129
				},
				{
					"input":12,
					"interpolation":"LINEAR",
					"output":130
				},
				{
					"input":7,
					"interpolation":"STEP",
					"output":131
				},
				{
					"input":7,
					"interpolation":"STEP",
					"output":132
				},
				{
					"input":12,
					"interpolation":"LINEAR",
					"output":133
				},
				{
					"input":7,
					"interpolation":"STEP",
					"output":131
				}
			]
		},
		{
			"channels":[
				{
					"sampler":0,
					"target":{
						"node":2,
						"path":"translation"
					}
				},
				{
					"sampler":1,
					"target":{
						"node":2,
						"path":"rotation"
					}
				},
				{
					"sampler":2,
					"target":{
						"node":2,
						"path":"scale"
					}
				},
				{
					"sampler":3,
					"target":{
						"node":1,
						"path":"translation"
					}
				},
				{
					"sampler":4,
					"target":{
						"node":1,
						"path":"rotation"
					}
				},
				{
					"sampler":5,
					"target":{
						"node":1,
						"path":"scale"
					}
				},
				{
					"sampler":6,
					"target":{
						"node":0,
						"path":"translation"
					}
				},
				{
					"sampler":7,
					"target":{
						"node":0,
						"path":"rotation"
					}
				},
				{
					"sampler":8,
					"target":{
						"node":0,
						"path":"scale"
					}
				},
				{
					"sampler":9,
					"target":{
						"node":5,
						"path":"translation"
					}
				},
				{
					"sampler":10,
					"target":{
						"node":5,
						"path":"rotation"
					}
				},
				{
					"sampler":11,
					"target":{
						"node":5,
						"path":"scale"
					}
				},
				{
					"sampler":12,
					"target":{
						"node":4,
						"path":"translation"
					}
				},
				{
					"sampler":13,
					"target":{
						"node":4,
						"path":"rotation"
					}
				},
				{
					"sampler":14,
					"target":{
						"node":4,
						"path":"scale"
					}
				},
				{
					"sampler":15,
					"target":{
						"node":3,
						"path":"translation"
					}
				},
				{
					"sampler":16,
					"target":{
						"node":3,
						"path":"rotation"
					}
				},
				{
					"sampler":17,
					"target":{
						"node":3,
						"path":"scale"
					}
				},
				{
					"sampler":18,
					"target":{
						"node":12,
						"path":"translation"
					}
				},
				{
					"sampler":19,
					"target":{
						"node":12,
						"path":"rotation"
					}
				},
				{
					"sampler":20,
					"target":{
						"node":12,
						"path":"scale"
					}
				},
				{
					"sampler":21,
					"target":{
						"node":8,
						"path":"translation"
					}
				},
				{
					"sampler":22,
					"target":{
						"node":8,
						"path":"rotation"
					}
				},
				{
					"sampler":23,
					"target":{
						"node":8,
						"path":"scale"
					}
				},
				{
					"sampler":24,
					"target":{
						"node":7,
						"path":"translation"
					}
				},
				{
					"sampler":25,
					"target":{
						"node":7,
						"path":"rotation"
					}
				},
				{
					"sampler":26,
					"target":{
						"node":7,
						"path":"scale"
					}
				},
				{
					"sampler":27,
					"target":{
						"node":6,
						"path":"translation"
					}
				},
				{
					"sampler":28,
					"target":{
						"node":6,
						"path":"rotation"
					}
				},
				{
					"sampler":29,
					"target":{
						"node":6,
						"path":"scale"
					}
				},
				{
					"sampler":30,
					"target":{
						"node":11,
						"path":"translation"
					}
				},
				{
					"sampler":31,
					"target":{
						"node":11,
						"path":"rotation"
					}
				},
				{
					"sampler":32,
					"target":{
						"node":11,
						"path":"scale"
					}
				},
				{
					"sampler":33,
					"target":{
						"node":10,
						"path":"translation"
					}
				},
				{
					"sampler":34,
					"target":{
						"node":10,
						"path":"rotation"
					}
				},
				{
					"sampler":35,
					"target":{
						"node":10,
						"path":"scale"
					}
				},
				{
					"sampler":36,
					"target":{
						"node":9,
						"path":"translation"
					}
				},
				{
					"sampler":37,
					"target":{
						"node":9,
						"path":"rotation"
					}
				},
				{
					"sampler":38,
					"target":{
						"node":9,
						"path":"scale"
					}
				}
			],
			"name":"rolling",
			"samplers":[
				{
					"input":134,
					"interpolation":"STEP",
					"output":8
				},
				{
					"input":134,
					"interpolation":"STEP",
					"output":135
				},
				{
					"input":134,
					"interpolation":"STEP",
					"output":136
				},
				{
					"input":134,
					"interpolation":"STEP",
					"output":137
				},
				{
					"input":134,
					"interpolation":"STEP",
					"output":138
				},
				{
					"input":134,
					"interpolation":"STEP",
					"output":10
				},
				{
					"input":134,
					"interpolation":"STEP",
					"output":139
				},
				{
					"input":134,
					"interpolation":"STEP",
					"output":140
				},
				{
					"input":134,
					"interpolation":"STEP",
					"output":10
				},
				{
					"input":134,
					"interpolation":"STEP",
					"output":17
				},
				{
					"input":134,
					"interpolation":"STEP",
					"output":141
				},
				{
					"input":134,
					"interpolation":"STEP",
					"output":136
				},
				{
					"input":134,
					"interpolation":"STEP",
					"output":142
				},
				{
					"input":134,
					"interpolation":"STEP",
					"output":143
				},
				{
					"input":134,
					"interpolation":"STEP",
					"output":10
				},
				{
					"input":134,
					"interpolation":"STEP",
					"output":144
				},
				{
					"input":134,
					"interpolation":"STEP",
					"output":145
				},
				{
					"input":134,
					"interpolation":"STEP",
					"output":10
				},
				{
					"input":134,
					"interpolation":"STEP",
					"output":146
				},
				{
					"input":147,
					"interpolation":"LINEAR",
					"output":148
				},
				{
					"input":134,
					"interpolation":"STEP",
					"output":10
				},
				{
					"input":134,
					"interpolation":"STEP",
					"output":149
				},
				{
					"input":134,
					"interpolation":"STEP",
					"output":150
				},
				{
					"input":134,
					"interpolation":"STEP",
					"output":151
				},
				{
					"input":134,
					"interpolation":"STEP",
					"output":152
				},
				{
					"input":134,
					"interpolation":"STEP",
					"output":153
				},
				{
					"input":134,
					"interpolation":"STEP",
					"output":154
				},
				{
					"input":134,
					"interpolation":"STEP",
					"output":155
				},
				{
					"input":134,
					"interpolation":"STEP",
					"output":156
				},
				{
					"input":134,
					"interpolation":"STEP",
					"output":10
				},
				{
					"input":134,
					"interpolation":"STEP",
					"output":157
				},
				{
					"input":134,
					"interpolation":"STEP",
					"output":158
				},
				{
					"input":134,
					"interpolation":"STEP",
					"output":36
				},
				{
					"input":134,
					"interpolation":"STEP",
					"output":159
				},
				{
					"input":134,
					"interpolation":"STEP",
					"output":160
				},
				{
					"input":134,
					"interpolation":"STEP",
					"output":151
				},
				{
					"input":134,
					"interpolation":"STEP",
					"output":161
				},
				{
					"input":134,
					"interpolation":"STEP",
					"output":162
				},
				{
					"input":134,
					"interpolation":"STEP",
					"output":151
				}
			]
		},
		{
			"channels":[
				{
					"sampler":0,
					"target":{
						"node":2,
						"path":"translation"
					}
				},
				{
					"sampler":1,
					"target":{
						"node":2,
						"path":"rotation"
					}
				},
				{
					"sampler":2,
					"target":{
						"node":2,
						"path":"scale"
					}
				},
				{
					"sampler":3,
					"target":{
						"node":1,
						"path":"translation"
					}
				},
				{
					"sampler":4,
					"target":{
						"node":1,
						"path":"rotation"
					}
				},
				{
					"sampler":5,
					"target":{
						"node":1,
						"path":"scale"
					}
				},
				{
					"sampler":6,
					"target":{
						"node":0,
						"path":"translation"
					}
				},
				{
					"sampler":7,
					"target":{
						"node":0,
						"path":"rotation"
					}
				},
				{
					"sampler":8,
					"target":{
						"node":0,
						"path":"scale"
					}
				},
				{
					"sampler":9,
					"target":{
						"node":5,
						"path":"translation"
					}
				},
				{
					"sampler":10,
					"target":{
						"node":5,
						"path":"rotation"
					}
				},
				{
					"sampler":11,
					"target":{
						"node":5,
						"path":"scale"
					}
				},
				{
					"sampler":12,
					"target":{
						"node":4,
						"path":"translation"
					}
				},
				{
					"sampler":13,
					"target":{
						"node":4,
						"path":"rotation"
					}
				},
				{
					"sampler":14,
					"target":{
						"node":4,
						"path":"scale"
					}
				},
				{
					"sampler":15,
					"target":{
						"node":3,
						"path":"translation"
					}
				},
				{
					"sampler":16,
					"target":{
						"node":3,
						"path":"rotation"
					}
				},
				{
					"sampler":17,
					"target":{
						"node":3,
						"path":"scale"
					}
				},
				{
					"sampler":18,
					"target":{
						"node":12,
						"path":"translation"
					}
				},
				{
					"sampler":19,
					"target":{
						"node":12,
						"path":"rotation"
					}
				},
				{
					"sampler":20,
					"target":{
						"node":12,
						"path":"scale"
					}
				},
				{
					"sampler":21,
					"target":{
						"node":8,
						"path":"translation"
					}
				},
				{
					"sampler":22,
					"target":{
						"node":8,
						"path":"rotation"
					}
				},
				{
					"sampler":23,
					"target":{
						"node":8,
						"path":"scale"
					}
				},
				{
					"sampler":24,
					"target":{
						"node":7,
						"path":"translation"
					}
				},
				{
					"sampler":25,
					"target":{
						"node":7,
						"path":"rotation"
					}
				},
				{
					"sampler":26,
					"target":{
						"node":7,
						"path":"scale"
					}
				},
				{
					"sampler":27,
					"target":{
						"node":6,
						"path":"translation"
					}
				},
				{
					"sampler":28,
					"target":{
						"node":6,
						"path":"rotation"
					}
				},
				{
					"sampler":29,
					"target":{
						"node":6,
						"path":"scale"
					}
				},
				{
					"sampler":30,
					"target":{
						"node":11,
						"path":"translation"
					}
				},
				{
					"sampler":31,
					"target":{
						"node":11,
						"path":"rotation"
					}
				},
				{
					"sampler":32,
					"target":{
						"node":11,
						"path":"scale"
					}
				},
				{
					"sampler":33,
					"target":{
						"node":10,
						"path":"translation"
					}
				},
				{
					"sampler":34,
					"target":{
						"node":10,
						"path":"rotation"
					}
				},
				{
					"sampler":35,
					"target":{
						"node":10,
						"path":"scale"
					}
				},
				{
					"sampler":36,
					"target":{
						"node":9,
						"path":"translation"
					}
				},
				{
					"sampler":37,
					"target":{
						"node":9,
						"path":"rotation"
					}
				},
				{
					"sampler":38,
					"target":{
						"node":9,
						"path":"scale"
					}
				}
			],
			"name":"running",
			"samplers":[
				{
					"input":147,
					"interpolation":"LINEAR",
					"output":163
				},
				{
					"input":147,
					"interpolation":"LINEAR",
					"output":164
				},
				{
					"input":147,
					"interpolation":"LINEAR",
					"output":165
				},
				{
					"input":147,
					"interpolation":"LINEAR",
					"output":166
				},
				{
					"input":147,
					"interpolation":"LINEAR",
					"output":167
				},
				{
					"input":134,
					"interpolation":"STEP",
					"output":10
				},
				{
					"input":134,
					"interpolation":"STEP",
					"output":168
				},
				{
					"input":147,
					"interpolation":"LINEAR",
					"output":169
				},
				{
					"input":147,
					"interpolation":"LINEAR",
					"output":170
				},
				{
					"input":147,
					"interpolation":"LINEAR",
					"output":171
				},
				{
					"input":147,
					"interpolation":"LINEAR",
					"output":172
				},
				{
					"input":147,
					"interpolation":"LINEAR",
					"output":173
				},
				{
					"input":147,
					"interpolation":"LINEAR",
					"output":174
				},
				{
					"input":147,
					"interpolation":"LINEAR",
					"output":175
				},
				{
					"input":134,
					"interpolation":"STEP",
					"output":10
				},
				{
					"input":134,
					"interpolation":"STEP",
					"output":176
				},
				{
					"input":147,
					"interpolation":"LINEAR",
					"output":177
				},
				{
					"input":147,
					"interpolation":"LINEAR",
					"output":178
				},
				{
					"input":147,
					"interpolation":"LINEAR",
					"output":179
				},
				{
					"input":147,
					"interpolation":"LINEAR",
					"output":180
				},
				{
					"input":147,
					"interpolation":"LINEAR",
					"output":181
				},
				{
					"input":147,
					"interpolation":"LINEAR",
					"output":182
				},
				{
					"input":147,
					"interpolation":"LINEAR",
					"output":183
				},
				{
					"input":134,
					"interpolation":"STEP",
					"output":10
				},
				{
					"input":134,
					"interpolation":"STEP",
					"output":184
				},
				{
					"input":147,
					"interpolation":"LINEAR",
					"output":185
				},
				{
					"input":134,
					"interpolation":"STEP",
					"output":186
				},
				{
					"input":134,
					"interpolation":"STEP",
					"output":187
				},
				{
					"input":134,
					"interpolation":"STEP",
					"output":188
				},
				{
					"input":147,
					"interpolation":"LINEAR",
					"output":189
				},
				{
					"input":147,
					"interpolation":"LINEAR",
					"output":190
				},
				{
					"input":147,
					"interpolation":"LINEAR",
					"output":191
				},
				{
					"input":134,
					"interpolation":"STEP",
					"output":16
				},
				{
					"input":134,
					"interpolation":"STEP",
					"output":192
				},
				{
					"input":147,
					"interpolation":"LINEAR",
					"output":193
				},
				{
					"input":134,
					"interpolation":"STEP",
					"output":10
				},
				{
					"input":134,
					"interpolation":"STEP",
					"output":194
				},
				{
					"input":134,
					"interpolation":"STEP",
					"output":195
				},
				{
					"input":147,
					"interpolation":"LINEAR",
					"output":196
				}
			]
		}
	],
	"materials":[
		{
			"alphaCutoff":0.05000000074505806,
			"alphaMode":"MASK",
			"doubleSided":true,
			"name":"Material_0",
			"pbrMetallicRoughness":{
				"baseColorTexture":{
					"index":0
				},
				"metallicFactor":0
			}
		}
	],
	"meshes":[
		{
			"name":"Mesh_0",
			"primitives":[
				{
					"attributes":{
						"POSITION":0,
						"NORMAL":1,
						"TEXCOORD_0":2,
						"JOINTS_0":3,
						"WEIGHTS_0":4
					},
					"indices":5,
					"material":0
				}
			]
		}
	],
	"textures":[
		{
			"sampler":0,
			"source":0
		}
	],
	"images":[
		{
			"mimeType":"image/png",
			"name":"Image_0",
			"uri":"Image_0.png"
		}
	],
	"skins":[
		{
			"inverseBindMatrices":6,
			"joints":[
				2,
				1,
				0,
				5,
				4,
				3,
				12,
				8,
				7,
				6,
				11,
				10,
				9
			],
			"name":"armature"
		}
	],
	"accessors":[
		{
			"bufferView":0,
			"componentType":5126,
			"count":1425,
			"max":[
				1.2625000476837158,
				2.0118837356567383,
				0.625
			],
			"min":[
				-1.2625000476837158,
				0.11874999105930328,
				-0.625
			],
			"type":"VEC3"
		},
		{
			"bufferView":1,
			"componentType":5126,
			"count":1425,
			"type":"VEC3"
		},
		{
			"bufferView":2,
			"componentType":5126,
			"count":1425,
			"type":"VEC2"
		},
		{
			"bufferView":3,
			"componentType":5121,
			"count":1425,
			"type":"VEC4"
		},
		{
			"bufferView":4,
			"componentType":5126,
			"count":1425,
			"type":"VEC4"
		},
		{
			"bufferView":5,
			"componentType":5123,
			"count":1776,
			"type":"SCALAR"
		},
		{
			"bufferView":6,
			"componentType":5126,
			"count":13,
			"type":"MAT4"
		},
		{
			"bufferView":7,
			"componentType":5126,
			"count":2,
			"max":[
				0.75
			],
			"min":[
				0
			],
			"type":"SCALAR"
		},
		{
			"bufferView":8,
			"componentType":5126,
			"count":2,
			"type":"VEC3"
		},
		{
			"bufferView":9,
			"componentType":5126,
			"count":2,
			"type":"VEC4"
		},
		{
			"bufferView":10,
			"componentType":5126,
			"count":2,
			"type":"VEC3"
		},
		{
			"bufferView":11,
			"componentType":5126,
			"count":2,
			"type":"VEC3"
		},
		{
			"bufferView":12,
			"componentType":5126,
			"count":19,
			"max":[
				0.75
			],
			"min":[
				0
			],
			"type":"SCALAR"
		},
		{
			"bufferView":13,
			"componentType":5126,
			"count":19,
			"type":"VEC4"
		},
		{
			"bufferView":14,
			"componentType":5126,
			"count":2,
			"type":"VEC3"
		},
		{
			"bufferView":15,
			"componentType":5126,
			"count":19,
			"type":"VEC4"
		},
		{
			"bufferView":16,
			"componentType":5126,
			"count":2,
			"type":"VEC3"
		},
		{
			"bufferView":17,
			"componentType":5126,
			"count":2,
			"type":"VEC3"
		},
		{
			"bufferView":18,
			"componentType":5126,
			"count":2,
			"type":"VEC4"
		},
		{
			"bufferView":19,
			"componentType":5126,
			"count":2,
			"type":"VEC3"
		},
		{
			"bufferView":20,
			"componentType":5126,
			"count":19,
			"type":"VEC4"
		},
		{
			"bufferView":21,
			"componentType":5126,
			"count":2,
			"type":"VEC3"
		},
		{
			"bufferView":22,
			"componentType":5126,
			"count":19,
			"type":"VEC4"
		},
		{
			"bufferView":23,
			"componentType":5126,
			"count":2,
			"type":"VEC3"
		},
		{
			"bufferView":24,
			"componentType":5126,
			"count":19,
			"type":"VEC4"
		},
		{
			"bufferView":25,
			"componentType":5126,
			"count":2,
			"type":"VEC3"
		},
		{
			"bufferView":26,
			"componentType":5126,
			"count":19,
			"type":"VEC4"
		},
		{
			"bufferView":27,
			"componentType":5126,
			"count":19,
			"type":"VEC3"
		},
		{
			"bufferView":28,
			"componentType":5126,
			"count":2,
			"type":"VEC3"
		},
		{
			"bufferView":29,
			"componentType":5126,
			"count":19,
			"type":"VEC4"
		},
		{
			"bufferView":30,
			"componentType":5126,
			"count":19,
			"type":"VEC3"
		},
		{
			"bufferView":31,
			"componentType":5126,
			"count":2,
			"type":"VEC3"
		},
		{
			"bufferView":32,
			"componentType":5126,
			"count":2,
			"type":"VEC4"
		},
		{
			"bufferView":33,
			"componentType":5126,
			"count":19,
			"type":"VEC3"
		},
		{
			"bufferView":34,
			"componentType":5126,
			"count":2,
			"type":"VEC3"
		},
		{
			"bufferView":35,
			"componentType":5126,
			"count":19,
			"type":"VEC4"
		},
		{
			"bufferView":36,
			"componentType":5126,
			"count":2,
			"type":"VEC3"
		},
		{
			"bufferView":37,
			"componentType":5126,
			"count":2,
			"type":"VEC3"
		},
		{
			"bufferView":38,
			"componentType":5126,
			"count":19,
			"type":"VEC4"
		},
		{
			"bufferView":39,
			"componentType":5126,
			"count":2,
			"type":"VEC3"
		},
		{
			"bufferView":40,
			"componentType":5126,
			"count":19,
			"type":"VEC4"
		},
		{
			"bufferView":41,
			"componentType":5126,
			"count":2,
			"type":"VEC3"
		},
		{
			"bufferView":42,
			"componentType":5126,
			"count":2,
			"max":[
				0.25
			],
			"min":[
				0
			],
			"type":"SCALAR"
		},
		{
			"bufferView":43,
			"componentType":5126,
			"count":2,
			"type":"VEC3"
		},
		{
			"bufferView":44,
			"componentType":5126,
			"count":7,
			"max":[
				0.25
			],
			"min":[
				0
			],
			"type":"SCALAR"
		},
		{
			"bufferView":45,
			"componentType":5126,
			"count":7,
			"type":"VEC4"
		},
		{
			"bufferView":46,
			"componentType":5126,
			"count":2,
			"type":"VEC3"
		},
		{
			"bufferView":47,
			"componentType":5126,
			"count":2,
			"type":"VEC4"
		},
		{
			"bufferView":48,
			"componentType":5126,
			"count":2,
			"type":"VEC3"
		},
		{
			"bufferView":49,
			"componentType":5126,
			"count":7,
			"type":"VEC4"
		},
		{
			"bufferView":50,
			"componentType":5126,
			"count":2,
			"type":"VEC3"
		},
		{
			"bufferView":51,
			"componentType":5126,
			"count":7,
			"type":"VEC4"
		},
		{
			"bufferView":52,
			"componentType":5126,
			"count":2,
			"type":"VEC3"
		},
		{
			"bufferView":53,
			"componentType":5126,
			"count":2,
			"type":"VEC4"
		},
		{
			"bufferView":54,
			"componentType":5126,
			"count":2,
			"type":"VEC3"
		},
		{
			"bufferView":55,
			"componentType":5126,
			"count":2,
			"type":"VEC3"
		},
		{
			"bufferView":56,
			"componentType":5126,
			"count":7,
			"type":"VEC4"
		},
		{
			"bufferView":57,
			"componentType":5126,
			"count":7,
			"type":"VEC4"
		},
		{
			"bufferView":58,
			"componentType":5126,
			"count":2,
			"type":"VEC3"
		},
		{
			"bufferView":59,
			"componentType":5126,
			"count":7,
			"type":"VEC4"
		},
		{
			"bufferView":60,
			"componentType":5126,
			"count":2,
			"type":"VEC3"
		},
		{
			"bufferView":61,
			"componentType":5126,
			"count":2,
			"type":"VEC3"
		},
		{
			"bufferView":62,
			"componentType":5126,
			"count":2,
			"type":"VEC4"
		},
		{
			"bufferView":63,
			"componentType":5126,
			"count":2,
			"type":"VEC3"
		},
		{
			"bufferView":64,
			"componentType":5126,
			"count":7,
			"type":"VEC4"
		},
		{
			"bufferView":65,
			"componentType":5126,
			"count":2,
			"type":"VEC3"
		},
		{
			"bufferView":66,
			"componentType":5126,
			"count":2,
			"type":"VEC3"
		},
		{
			"bufferView":67,
			"componentType":5126,
			"count":7,
			"type":"VEC4"
		},
		{
			"bufferView":68,
			"componentType":5126,
			"count":2,
			"type":"VEC3"
		},
		{
			"bufferView":69,
			"componentType":5126,
			"count":7,
			"type":"VEC4"
		},
		{
			"bufferView":70,
			"componentType":5126,
			"count":2,
			"type":"VEC3"
		},
		{
			"bufferView":71,
			"componentType":5126,
			"count":7,
			"type":"VEC4"
		},
		{
			"bufferView":72,
			"componentType":5126,
			"count":2,
			"max":[
				2
			],
			"min":[
				0
			],
			"type":"SCALAR"
		},
		{
			"bufferView":73,
			"componentType":5126,
			"count":49,
			"max":[
				2
			],
			"min":[
				0
			],
			"type":"SCALAR"
		},
		{
			"bufferView":74,
			"componentType":5126,
			"count":49,
			"type":"VEC4"
		},
		{
			"bufferView":75,
			"componentType":5126,
			"count":49,
			"type":"VEC3"
		},
		{
			"bufferView":76,
			"componentType":5126,
			"count":49,
			"type":"VEC4"
		},
		{
			"bufferView":77,
			"componentType":5126,
			"count":49,
			"type":"VEC4"
		},
		{
			"bufferView":78,
			"componentType":5126,
			"count":49,
			"type":"VEC4"
		},
		{
			"bufferView":79,
			"componentType":5126,
			"count":49,
			"type":"VEC3"
		},
		{
			"bufferView":80,
			"componentType":5126,
			"count":49,
			"type":"VEC4"
		},
		{
			"bufferView":81,
			"componentType":5126,
			"count":49,
			"type":"VEC4"
		},
		{
			"bufferView":82,
			"componentType":5126,
			"count":49,
			"type":"VEC3"
		},
		{
			"bufferView":83,
			"componentType":5126,
			"count":49,
			"type":"VEC4"
		},
		{
			"bufferView":84,
			"componentType":5126,
			"count":49,
			"type":"VEC3"
		},
		{
			"bufferView":85,
			"componentType":5126,
			"count":49,
			"type":"VEC3"
		},
		{
			"bufferView":86,
			"componentType":5126,
			"count":49,
			"type":"VEC4"
		},
		{
			"bufferView":87,
			"componentType":5126,
			"count":2,
			"type":"VEC3"
		},
		{
			"bufferView":88,
			"componentType":5126,
			"count":49,
			"type":"VEC4"
		},
		{
			"bufferView":89,
			"componentType":5126,
			"count":2,
			"type":"VEC3"
		},
		{
			"bufferView":90,
			"componentType":5126,
			"count":49,
			"type":"VEC4"
		},
		{
			"bufferView":91,
			"componentType":5126,
			"count":49,
			"type":"VEC3"
		},
		{
			"bufferView":92,
			"componentType":5126,
			"count":49,
			"type":"VEC3"
		},
		{
			"bufferView":93,
			"componentType":5126,
			"count":49,
			"type":"VEC4"
		},
		{
			"bufferView":94,
			"componentType":5126,
			"count":2,
			"type":"VEC3"
		},
		{
			"bufferView":95,
			"componentType":5126,
			"count":49,
			"type":"VEC4"
		},
		{
			"bufferView":96,
			"componentType":5126,
			"count":2,
			"type":"VEC3"
		},
		{
			"bufferView":97,
			"componentType":5126,
			"count":49,
			"type":"VEC4"
		},
		{
			"bufferView":98,
			"componentType":5126,
			"count":49,
			"type":"VEC3"
		},
		{
			"bufferView":99,
			"componentType":5126,
			"count":19,
			"type":"VEC3"
		},
		{
			"bufferView":100,
			"componentType":5126,
			"count":19,
			"type":"VEC4"
		},
		{
			"bufferView":101,
			"componentType":5126,
			"count":2,
			"type":"VEC3"
		},
		{
			"bufferView":102,
			"componentType":5126,
			"count":19,
			"type":"VEC4"
		},
		{
			"bufferView":103,
			"componentType":5126,
			"count":2,
			"type":"VEC3"
		},
		{
			"bufferView":104,
			"componentType":5126,
			"count":19,
			"type":"VEC4"
		},
		{
			"bufferView":105,
			"componentType":5126,
			"count":19,
			"type":"VEC3"
		},
		{
			"bufferView":106,
			"componentType":5126,
			"count":19,
			"type":"VEC3"
		},
		{
			"bufferView":107,
			"componentType":5126,
			"count":19,
			"type":"VEC4"
		},
		{
			"bufferView":108,
			"componentType":5126,
			"count":2,
			"type":"VEC3"
		},
		{
			"bufferView":109,
			"componentType":5126,
			"count":19,
			"type":"VEC4"
		},
		{
			"bufferView":110,
			"componentType":5126,
			"count":2,
			"type":"VEC3"
		},
		{
			"bufferView":111,
			"componentType":5126,
			"count":2,
			"type":"VEC3"
		},
		{
			"bufferView":112,
			"componentType":5126,
			"count":19,
			"type":"VEC4"
		},
		{
			"bufferView":113,
			"componentType":5126,
			"count":19,
			"type":"VEC3"
		},
		{
			"bufferView":114,
			"componentType":5126,
			"count":19,
			"type":"VEC3"
		},
		{
			"bufferView":115,
			"componentType":5126,
			"count":19,
			"type":"VEC4"
		},
		{
			"bufferView":116,
			"componentType":5126,
			"count":19,
			"type":"VEC3"
		},
		{
			"bufferView":117,
			"componentType":5126,
			"count":2,
			"type":"VEC3"
		},
		{
			"bufferView":118,
			"componentType":5126,
			"count":19,
			"type":"VEC4"
		},
		{
			"bufferView":119,
			"componentType":5126,
			"count":2,
			"type":"VEC3"
		},
		{
			"bufferView":120,
			"componentType":5126,
			"count":2,
			"type":"VEC3"
		},
		{
			"bufferView":121,
			"componentType":5126,
			"count":19,
			"type":"VEC4"
		},
		{
			"bufferView":122,
			"componentType":5126,
			"count":2,
			"type":"VEC3"
		},
		{
			"bufferView":123,
			"componentType":5126,
			"count":2,
			"type":"VEC3"
		},
		{
			"bufferView":124,
			"componentType":5126,
			"count":19,
			"type":"VEC4"
		},
		{
			"bufferView":125,
			"componentType":5126,
			"count":2,
			"type":"VEC3"
		},
		{
			"bufferView":126,
			"componentType":5126,
			"count":2,
			"type":"VEC3"
		},
		{
			"bufferView":127,
			"componentType":5126,
			"count":19,
			"type":"VEC4"
		},
		{
			"bufferView":128,
			"componentType":5126,
			"count":2,
			"type":"VEC3"
		},
		{
			"bufferView":129,
			"componentType":5126,
			"count":2,
			"type":"VEC3"
		},
		{
			"bufferView":130,
			"componentType":5126,
			"count":19,
			"type":"VEC4"
		},
		{
			"bufferView":131,
			"componentType":5126,
			"count":2,
			"type":"VEC3"
		},
		{
			"bufferView":132,
			"componentType":5126,
			"count":2,
			"type":"VEC3"
		},
		{
			"bufferView":133,
			"componentType":5126,
			"count":19,
			"type":"VEC4"
		},
		{
			"bufferView":134,
			"componentType":5126,
			"count":2,
			"max":[
				0.5
			],
			"min":[
				0
			],
			"type":"SCALAR"
		},
		{
			"bufferView":135,
			"componentType":5126,
			"count":2,
			"type":"VEC4"
		},
		{
			"bufferView":136,
			"componentType":5126,
			"count":2,
			"type":"VEC3"
		},
		{
			"bufferView":137,
			"componentType":5126,
			"count":2,
			"type":"VEC3"
		},
		{
			"bufferView":138,
			"componentType":5126,
			"count":2,
			"type":"VEC4"
		},
		{
			"bufferView":139,
			"componentType":5126,
			"count":2,
			"type":"VEC3"
		},
		{
			"bufferView":140,
			"componentType":5126,
			"count":2,
			"type":"VEC4"
		},
		{
			"bufferView":141,
			"componentType":5126,
			"count":2,
			"type":"VEC4"
		},
		{
			"bufferView":142,
			"componentType":5126,
			"count":2,
			"type":"VEC3"
		},
		{
			"bufferView":143,
			"componentType":5126,
			"count":2,
			"type":"VEC4"
		},
		{
			"bufferView":144,
			"componentType":5126,
			"count":2,
			"type":"VEC3"
		},
		{
			"bufferView":145,
			"componentType":5126,
			"count":2,
			"type":"VEC4"
		},
		{
			"bufferView":146,
			"componentType":5126,
			"count":2,
			"type":"VEC3"
		},
		{
			"bufferView":147,
			"componentType":5126,
			"count":13,
			"max":[
				0.5
			],
			"min":[
				0
			],
			"type":"SCALAR"
		},
		{
			"bufferView":148,
			"componentType":5126,
			"count":13,
			"type":"VEC4"
		},
		{
			"bufferView":149,
			"componentType":5126,
			"count":2,
			"type":"VEC3"
		},
		{
			"bufferView":150,
			"componentType":5126,
			"count":2,
			"type":"VEC4"
		},
		{
			"bufferView":151,
			"componentType":5126,
			"count":2,
			"type":"VEC3"
		},
		{
			"bufferView":152,
			"componentType":5126,
			"count":2,
			"type":"VEC3"
		},
		{
			"bufferView":153,
			"componentType":5126,
			"count":2,
			"type":"VEC4"
		},
		{
			"bufferView":154,
			"componentType":5126,
			"count":2,
			"type":"VEC3"
		},
		{
			"bufferView":155,
			"componentType":5126,
			"count":2,
			"type":"VEC3"
		},
		{
			"bufferView":156,
			"componentType":5126,
			"count":2,
			"type":"VEC4"
		},
		{
			"bufferView":157,
			"componentType":5126,
			"count":2,
			"type":"VEC3"
		},
		{
			"bufferView":158,
			"componentType":5126,
			"count":2,
			"type":"VEC4"
		},
		{
			"bufferView":159,
			"componentType":5126,
			"count":2,
			"type":"VEC3"
		},
		{
			"bufferView":160,
			"componentType":5126,
			"count":2,
			"type":"VEC4"
		},
		{
			"bufferView":161,
			"componentType":5126,
			"count":2,
			"type":"VEC3"
		},
		{
			"bufferView":162,
			"componentType":5126,
			"count":2,
			"type":"VEC4"
		},
		{
			"bufferView":163,
			"componentType":5126,
			"count":13,
			"type":"VEC3"
		},
		{
			"bufferView":164,
			"componentType":5126,
			"count":13,
			"type":"VEC4"
		},
		{
			"bufferView":165,
			"componentType":5126,
			"count":13,
			"type":"VEC3"
		},
		{
			"bufferView":166,
			"componentType":5126,
			"count":13,
			"type":"VEC3"
		},
		{
			"bufferView":167,
			"componentType":5126,
			"count":13,
			"type":"VEC4"
		},
		{
			"bufferView":168,
			"componentType":5126,
			"count":2,
			"type":"VEC3"
		},
		{
			"bufferView":169,
			"componentType":5126,
			"count":13,
			"type":"VEC4"
		},
		{
			"bufferView":170,
			"componentType":5126,
			"count":13,
			"type":"VEC3"
		},
		{
			"bufferView":171,
			"componentType":5126,
			"count":13,
			"type":"VEC3"
		},
		{
			"bufferView":172,
			"componentType":5126,
			"count":13,
			"type":"VEC4"
		},
		{
			"bufferView":173,
			"componentType":5126,
			"count":13,
			"type":"VEC3"
		},
		{
			"bufferView":174,
			"componentType":5126,
			"count":13,
			"type":"VEC3"
		},
		{
			"bufferView":175,
			"componentType":5126,
			"count":13,
			"type":"VEC4"
		},
		{
			"bufferView":176,
			"componentType":5126,
			"count":2,
			"type":"VEC3"
		},
		{
			"bufferView":177,
			"componentType":5126,
			"count":13,
			"type":"VEC4"
		},
		{
			"bufferView":178,
			"componentType":5126,
			"count":13,
			"type":"VEC3"
		},
		{
			"bufferView":179,
			"componentType":5126,
			"count":13,
			"type":"VEC3"
		},
		{
			"bufferView":180,
			"componentType":5126,
			"count":13,
			"type":"VEC4"
		},
		{
			"bufferView":181,
			"componentType":5126,
			"count":13,
			"type":"VEC3"
		},
		{
			"bufferView":182,
			"componentType":5126,
			"count":13,
			"type":"VEC3"
		},
		{
			"bufferView":183,
			"componentType":5126,
			"count":13,
			"type":"VEC4"
		},
		{
			"bufferView":184,
			"componentType":5126,
			"count":2,
			"type":"VEC3"
		},
		{
			"bufferView":185,
			"componentType":5126,
			"count":13,
			"type":"VEC4"
		},
		{
			"bufferView":186,
			"componentType":5126,
			"count":2,
			"type":"VEC3"
		},
		{
			"bufferView":187,
			"componentType":5126,
			"count":2,
			"type":"VEC3"
		},
		{
			"bufferView":188,
			"componentType":5126,
			"count":2,
			"type":"VEC4"
		},
		{
			"bufferView":189,
			"componentType":5126,
			"count":13,
			"type":"VEC3"
		},
		{
			"bufferView":190,
			"componentType":5126,
			"count":13,
			"type":"VEC3"
		},
		{
			"bufferView":191,
			"componentType":5126,
			"count":13,
			"type":"VEC4"
		},
		{
			"bufferView":192,
			"componentType":5126,
			"count":2,
			"type":"VEC3"
		},
		{
			"bufferView":193,
			"componentType":5126,
			"count":13,
			"type":"VEC4"
		},
		{
			"bufferView":194,
			"componentType":5126,
			"count":2,
			"type":"VEC3"
		},
		{
			"bufferView":195,
			"componentType":5126,
			"count":2,
			"type":"VEC4"
		},
		{
			"bufferView":196,
			"componentType":5126,
			"count":13,
			"type":"VEC3"
		}
	],
	"bufferViews":[
		{
			"buffer":0,
			"byteLength":17100,
			"byteOffset":0,
			"target":34962
		},
		{
			"buffer":0,
			"byteLength":17100,
			"byteOffset":17100,
			"target":34962
		},
		{
			"buffer":0,
			"byteLength":11400,
			"byteOffset":34200,
			"target":34962
		},
		{
			"buffer":0,
			"byteLength":5700,
			"byteOffset":45600,
			"target":34962
		},
		{
			"buffer":0,
			"byteLength":22800,
			"byteOffset":51300,
			"target":34962
		},
		{
			"buffer":0,
			"byteLength":3552,
			"byteOffset":74100,
			"target":34963
		},
		{
			"buffer":0,
			"byteLength":832,
			"byteOffset":77652
		},
		{
			"buffer":0,
			"byteLength":8,
			"byteOffset":78484
		},
		{
			"buffer":0,
			"byteLength":24,
			"byteOffset":78492
		},
		{
			"buffer":0,
			"byteLength":32,
			"byteOffset":78516
		},
		{
			"buffer":0,
			"byteLength":24,
			"byteOffset":78548
		},
		{
			"buffer":0,
			"byteLength":24,
			"byteOffset":78572
		},
		{
			"buffer":0,
			"byteLength":76,
			"byteOffset":78596
		},
		{
			"buffer":0,
			"byteLength":304,
			"byteOffset":78672
		},
		{
			"buffer":0,
			"byteLength":24,
			"byteOffset":78976
		},
		{
			"buffer":0,
			"byteLength":304,
			"byteOffset":79000
		},
		{
			"buffer":0,
			"byteLength":24,
			"byteOffset":79304
		},
		{
			"buffer":0,
			"byteLength":24,
			"byteOffset":79328
		},
		{
			"buffer":0,
			"byteLength":32,
			"byteOffset":79352
		},
		{
			"buffer":0,
			"byteLength":24,
			"byteOffset":79384
		},
		{
			"buffer":0,
			"byteLength":304,
			"byteOffset":79408
		},
		{
			"buffer":0,
			"byteLength":24,
			"byteOffset":79712
		},
		{
			"buffer":0,
			"byteLength":304,
			"byteOffset":79736
		},
		{
			"buffer":0,
			"byteLength":24,
			"byteOffset":80040
		},
		{
			"buffer":0,
			"byteLength":304,
			"byteOffset":80064
		},
		{
			"buffer":0,
			"byteLength":24,
			"byteOffset":80368
		},
		{
			"buffer":0,
			"byteLength":304,
			"byteOffset":80392
		},
		{
			"buffer":0,
			"byteLength":228,
			"byteOffset":80696
		},
		{
			"buffer":0,
			"byteLength":24,
			"byteOffset":80924
		},
		{
			"buffer":0,
			"byteLength":304,
			"byteOffset":80948
		},
		{
			"buffer":0,
			"byteLength":228,
			"byteOffset":81252
		},
		{
			"buffer":0,
			"byteLength":24,
			"byteOffset":81480
		},
		{
			"buffer":0,
			"byteLength":32,
			"byteOffset":81504
		},
		{
			"buffer":0,
			"byteLength":228,
			"byteOffset":81536
		},
		{
			"buffer":0,
			"byteLength":24,
			"byteOffset":81764
		},
		{
			"buffer":0,
			"byteLength":304,
			"byteOffset":81788
		},
		{
			"buffer":0,
			"byteLength":24,
			"byteOffset":82092
		},
		{
			"buffer":0,
			"byteLength":24,
			"byteOffset":82116
		},
		{
			"buffer":0,
			"byteLength":304,
			"byteOffset":82140
		},
		{
			"buffer":0,
			"byteLength":24,
			"byteOffset":82444
		},
		{
			"buffer":0,
			"byteLength":304,
			"byteOffset":82468
		},
		{
			"buffer":0,
			"byteLength":24,
			"byteOffset":82772
		},
		{
			"buffer":0,
			"byteLength":8,
			"byteOffset":82796
		},
		{
			"buffer":0,
			"byteLength":24,
			"byteOffset":82804
		},
		{
			"buffer":0,
			"byteLength":28,
			"byteOffset":82828
		},
		{
			"buffer":0,
			"byteLength":112,
			"byteOffset":82856
		},
		{
			"buffer":0,
			"byteLength":24,
			"byteOffset":82968
		},
		{
			"buffer":0,
			"byteLength":32,
			"byteOffset":82992
		},
		{
			"buffer":0,
			"byteLength":24,
			"byteOffset":83024
		},
		{
			"buffer":0,
			"byteLength":112,
			"byteOffset":83048
		},
		{
			"buffer":0,
			"byteLength":24,
			"byteOffset":83160
		},
		{
			"buffer":0,
			"byteLength":112,
			"byteOffset":83184
		},
		{
			"buffer":0,
			"byteLength":24,
			"byteOffset":83296
		},
		{
			"buffer":0,
			"byteLength":32,
			"byteOffset":83320
		},
		{
			"buffer":0,
			"byteLength":24,
			"byteOffset":83352
		},
		{
			"buffer":0,
			"byteLength":24,
			"byteOffset":83376
		},
		{
			"buffer":0,
			"byteLength":112,
			"byteOffset":83400
		},
		{
			"buffer":0,
			"byteLength":112,
			"byteOffset":83512
		},
		{
			"buffer":0,
			"byteLength":24,
			"byteOffset":83624
		},
		{
			"buffer":0,
			"byteLength":112,
			"byteOffset":83648
		},
		{
			"buffer":0,
			"byteLength":24,
			"byteOffset":83760
		},
		{
			"buffer":0,
			"byteLength":24,
			"byteOffset":83784
		},
		{
			"buffer":0,
			"byteLength":32,
			"byteOffset":83808
		},
		{
			"buffer":0,
			"byteLength":24,
			"byteOffset":83840
		},
		{
			"buffer":0,
			"byteLength":112,
			"byteOffset":83864
		},
		{
			"buffer":0,
			"byteLength":24,
			"byteOffset":83976
		},
		{
			"buffer":0,
			"byteLength":24,
			"byteOffset":84000
		},
		{
			"buffer":0,
			"byteLength":112,
			"byteOffset":84024
		},
		{
			"buffer":0,
			"byteLength":24,
			"byteOffset":84136
		},
		{
			"buffer":0,
			"byteLength":112,
			"byteOffset":84160
		},
		{
			"buffer":0,
			"byteLength":24,
			"byteOffset":84272
		},
		{
			"buffer":0,
			"byteLength":112,
			"byteOffset":84296
		},
		{
			"buffer":0,
			"byteLength":8,
			"byteOffset":84408
		},
		{
			"buffer":0,
			"byteLength":196,
			"byteOffset":84416
		},
		{
			"buffer":0,
			"byteLength":784,
			"byteOffset":84612
		},
		{
			"buffer":0,
			"byteLength":588,
			"byteOffset":85396
		},
		{
			"buffer":0,
			"byteLength":784,
			"byteOffset":85984
		},
		{
			"buffer":0,
			"byteLength":784,
			"byteOffset":86768
		},
		{
			"buffer":0,
			"byteLength":784,
			"byteOffset":87552
		},
		{
			"buffer":0,
			"byteLength":588,
			"byteOffset":88336
		},
		{
			"buffer":0,
			"byteLength":784,
			"byteOffset":88924
		},
		{
			"buffer":0,
			"byteLength":784,
			"byteOffset":89708
		},
		{
			"buffer":0,
			"byteLength":588,
			"byteOffset":90492
		},
		{
			"buffer":0,
			"byteLength":784,
			"byteOffset":91080
		},
		{
			"buffer":0,
			"byteLength":588,
			"byteOffset":91864
		},
		{
			"buffer":0,
			"byteLength":588,
			"byteOffset":92452
		},
		{
			"buffer":0,
			"byteLength":784,
			"byteOffset":93040
		},
		{
			"buffer":0,
			"byteLength":24,
			"byteOffset":93824
		},
		{
			"buffer":0,
			"byteLength":784,
			"byteOffset":93848
		},
		{
			"buffer":0,
			"byteLength":24,
			"byteOffset":94632
		},
		{
			"buffer":0,
			"byteLength":784,
			"byteOffset":94656
		},
		{
			"buffer":0,
			"byteLength":588,
			"byteOffset":95440
		},
		{
			"buffer":0,
			"byteLength":588,
			"byteOffset":96028
		},
		{
			"buffer":0,
			"byteLength":784,
			"byteOffset":96616
		},
		{
			"buffer":0,
			"byteLength":24,
			"byteOffset":97400
		},
		{
			"buffer":0,
			"byteLength":784,
			"byteOffset":97424
		},
		{
			"buffer":0,
			"byteLength":24,
			"byteOffset":98208
		},
		{
			"buffer":0,
			"byteLength":784,
			"byteOffset":98232
		},
		{
			"buffer":0,
			"byteLength":588,
			"byteOffset":99016
		},
		{
			"buffer":0,
			"byteLength":228,
			"byteOffset":99604
		},
		{
			"buffer":0,
			"byteLength":304,
			"byteOffset":99832
		},
		{
			"buffer":0,
			"byteLength":24,
			"byteOffset":100136
		},
		{
			"buffer":0,
			"byteLength":304,
			"byteOffset":100160
		},
		{
			"buffer":0,
			"byteLength":24,
			"byteOffset":100464
		},
		{
			"buffer":0,
			"byteLength":304,
			"byteOffset":100488
		},
		{
			"buffer":0,
			"byteLength":228,
			"byteOffset":100792
		},
		{
			"buffer":0,
			"byteLength":228,
			"byteOffset":101020
		},
		{
			"buffer":0,
			"byteLength":304,
			"byteOffset":101248
		},
		{
			"buffer":0,
			"byteLength":24,
			"byteOffset":101552
		},
		{
			"buffer":0,
			"byteLength":304,
			"byteOffset":101576
		},
		{
			"buffer":0,
			"byteLength":24,
			"byteOffset":101880
		},
		{
			"buffer":0,
			"byteLength":24,
			"byteOffset":101904
		},
		{
			"buffer":0,
			"byteLength":304,
			"byteOffset":101928
		},
		{
			"buffer":0,
			"byteLength":228,
			"byteOffset":102232
		},
		{
			"buffer":0,
			"byteLength":228,
			"byteOffset":102460
		},
		{
			"buffer":0,
			"byteLength":304,
			"byteOffset":102688
		},
		{
			"buffer":0,
			"byteLength":228,
			"byteOffset":102992
		},
		{
			"buffer":0,
			"byteLength":24,
			"byteOffset":103220
		},
		{
			"buffer":0,
			"byteLength":304,
			"byteOffset":103244
		},
		{
			"buffer":0,
			"byteLength":24,
			"byteOffset":103548
		},
		{
			"buffer":0,
			"byteLength":24,
			"byteOffset":103572
		},
		{
			"buffer":0,
			"byteLength":304,
			"byteOffset":103596
		},
		{
			"buffer":0,
			"byteLength":24,
			"byteOffset":103900
		},
		{
			"buffer":0,
			"byteLength":24,
			"byteOffset":103924
		},
		{
			"buffer":0,
			"byteLength":304,
			"byteOffset":103948
		},
		{
			"buffer":0,
			"byteLength":24,
			"byteOffset":104252
		},
		{
			"buffer":0,
			"byteLength":24,
			"byteOffset":104276
		},
		{
			"buffer":0,
			"byteLength":304,
			"byteOffset":104300
		},
		{
			"buffer":0,
			"byteLength":24,
			"byteOffset":104604
		},
		{
			"buffer":0,
			"byteLength":24,
			"byteOffset":104628
		},
		{
			"buffer":0,
			"byteLength":304,
			"byteOffset":104652
		},
		{
			"buffer":0,
			"byteLength":24,
			"byteOffset":104956
		},
		{
			"buffer":0,
			"byteLength":24,
			"byteOffset":104980
		},
		{
			"buffer":0,
			"byteLength":304,
			"byteOffset":105004
		},
		{
			"buffer":0,
			"byteLength":8,
			"byteOffset":105308
		},
		{
			"buffer":0,
			"byteLength":32,
			"byteOffset":105316
		},
		{
			"buffer":0,
			"byteLength":24,
			"byteOffset":105348
		},
		{
			"buffer":0,
			"byteLength":24,
			"byteOffset":105372
		},
		{
			"buffer":0,
			"byteLength":32,
			"byteOffset":105396
		},
		{
			"buffer":0,
			"byteLength":24,
			"byteOffset":105428
		},
		{
			"buffer":0,
			"byteLength":32,
			"byteOffset":105452
		},
		{
			"buffer":0,
			"byteLength":32,
			"byteOffset":105484
		},
		{
			"buffer":0,
			"byteLength":24,
			"byteOffset":105516
		},
		{
			"buffer":0,
			"byteLength":32,
			"byteOffset":105540
		},
		{
			"buffer":0,
			"byteLength":24,
			"byteOffset":105572
		},
		{
			"buffer":0,
			"byteLength":32,
			"byteOffset":105596
		},
		{
			"buffer":0,
			"byteLength":24,
			"byteOffset":105628
		},
		{
			"buffer":0,
			"byteLength":52,
			"byteOffset":105652
		},
		{
			"buffer":0,
			"byteLength":208,
			"byteOffset":105704
		},
		{
			"buffer":0,
			"byteLength":24,
			"byteOffset":105912
		},
		{
			"buffer":0,
			"byteLength":32,
			"byteOffset":105936
		},
		{
			"buffer":0,
			"byteLength":24,
			"byteOffset":105968
		},
		{
			"buffer":0,
			"byteLength":24,
			"byteOffset":105992
		},
		{
			"buffer":0,
			"byteLength":32,
			"byteOffset":106016
		},
		{
			"buffer":0,
			"byteLength":24,
			"byteOffset":106048
		},
		{
			"buffer":0,
			"byteLength":24,
			"byteOffset":106072
		},
		{
			"buffer":0,
			"byteLength":32,
			"byteOffset":106096
		},
		{
			"buffer":0,
			"byteLength":24,
			"byteOffset":106128
		},
		{
			"buffer":0,
			"byteLength":32,
			"byteOffset":106152
		},
		{
			"buffer":0,
			"byteLength":24,
			"byteOffset":106184
		},
		{
			"buffer":0,
			"byteLength":32,
			"byteOffset":106208
		},
		{
			"buffer":0,
			"byteLength":24,
			"byteOffset":106240
		},
		{
			"buffer":0,
			"byteLength":32,
			"byteOffset":106264
		},
		{
			"buffer":0,
			"byteLength":156,
			"byteOffset":106296
		},
		{
			"buffer":0,
			"byteLength":208,
			"byteOffset":106452
		},
		{
			"buffer":0,
			"byteLength":156,
			"byteOffset":106660
		},
		{
			"buffer":0,
			"byteLength":156,
			"byteOffset":106816
		},
		{
			"buffer":0,
			"byteLength":208,
			"byteOffset":106972
		},
		{
			"buffer":0,
			"byteLength":24,
			"byteOffset":107180
		},
		{
			"buffer":0,
			"byteLength":208,
			"byteOffset":107204
		},
		{
			"buffer":0,
			"byteLength":156,
			"byteOffset":107412
		},
		{
			"buffer":0,
			"byteLength":156,
			"byteOffset":107568
		},
		{
			"buffer":0,
			"byteLength":208,
			"byteOffset":107724
		},
		{
			"buffer":0,
			"byteLength":156,
			"byteOffset":107932
		},
		{
			"buffer":0,
			"byteLength":156,
			"byteOffset":108088
		},
		{
			"buffer":0,
			"byteLength":208,
			"byteOffset":108244
		},
		{
			"buffer":0,
			"byteLength":24,
			"byteOffset":108452
		},
		{
			"buffer":0,
			"byteLength":208,
			"byteOffset":108476
		},
		{
			"buffer":0,
			"byteLength":156,
			"byteOffset":108684
		},
		{
			"buffer":0,
			"byteLength":156,
			"byteOffset":108840
		},
		{
			"buffer":0,
			"byteLength":208,
			"byteOffset":108996
		},
		{
			"buffer":0,
			"byteLength":156,
			"byteOffset":109204
		},
		{
			"buffer":0,
			"byteLength":156,
			"byteOffset":109360
		},
		{
			"buffer":0,
			"byteLength":208,
			"byteOffset":109516
		},
		{
			"buffer":0,
			"byteLength":24,
			"byteOffset":109724
		},
		{
			"buffer":0,
			"byteLength":208,
			"byteOffset":109748
		},
		{
			"buffer":0,
			"byteLength":24,
			"byteOffset":109956
		},
		{
			"buffer":0,
			"byteLength":24,
			"byteOffset":109980
		},
		{
			"buffer":0,
			"byteLength":32,
			"byteOffset":110004
		},
		{
			"buffer":0,
			"byteLength":156,
			"byteOffset":110036
		},
		{
			"buffer":0,
			"byteLength":156,
			"byteOffset":110192
		},
		{
			"buffer":0,
			"byteLength":208,
			"byteOffset":110348
		},
		{
			"buffer":0,
			"byteLength":24,
			"byteOffset":110556
		},
		{
			"buffer":0,
			"byteLength":208,
			"byteOffset":110580
		},
		{
			"buffer":0,
			"byteLength":24,
			"byteOffset":110788
		},
		{
			"buffer":0,
			"byteLength":32,
			"byteOffset":110812
		},
		{
			"buffer":0,
			"byteLength":156,
			"byteOffset":110844
		}
	],
	"samplers":[
		{
			"magFilter":9728,
			"minFilter":9984,
			"wrapS":33071,
			"wrapT":33071
		}
	],
	"buffers":[
		{
			"byteLength":111000,
			"uri":"godot_pixel_plush.bin"
		}
	]
}
